<?xml version="1.0" encoding="utf-8"?>
<!-- Generator: Adobe Illustrator 24.1.2, SVG Export Plug-In . SVG Version: 6.00 Build 0)  -->
<svg version="1.1" id="Layer_1" xmlns="http://www.w3.org/2000/svg" xmlns:xlink="http://www.w3.org/1999/xlink" x="0px" y="0px"
	 viewBox="0 0 24 24" style="enable-background:new 0 0 24 24;" xml:space="preserve">
<style type="text/css">
	.st0{fill:#FFFFFF;}
</style>
<path class="st0" d="M19.719,18.695C17.655,20.826,14.912,22,11.995,22c-2.91,0-5.649-1.169-7.712-3.292
	c-0.385-0.396-0.375-1.029,0.021-1.414c0.396-0.387,1.029-0.375,1.414,0.02C7.4,19.046,9.63,20,11.995,20
	c2.37,0,4.604-0.957,6.286-2.695c0.385-0.399,1.02-0.405,1.414-0.023C20.093,17.666,20.103,18.299,19.719,18.695z M11.293,16.082
	c0.195,0.195,0.451,0.293,0.707,0.293s0.512-0.098,0.707-0.293l4.125-4.125c0.391-0.391,0.391-1.023,0-1.414s-1.023-0.391-1.414,0
	L13,12.961V3c0-0.552-0.448-1-1-1s-1,0.448-1,1v9.961l-2.418-2.418c-0.391-0.391-1.023-0.391-1.414,0s-0.391,1.023,0,1.414
	L11.293,16.082z"/>
</svg>
